<svg xmlns="http://www.w3.org/2000/svg" viewBox="0 0 256 136" width="256" height="136">
  <rect x="160" y="0" width="8" height="8" fill="#0A1E3D"/>
  <rect x="168" y="0" width="8" height="8" fill="#0A1E3D"/>
  <rect x="152" y="8" width="8" height="8" fill="#0A1E3D"/>
  <rect x="160" y="8" width="8" height="8" fill="#0D3B6E"/>
  <rect x="168" y="8" width="8" height="8" fill="#0A1E3D"/>
  <rect x="0" y="16" width="8" height="8" fill="#040D1A"/>
  <rect x="8" y="16" width="8" height="8" fill="#0A1E3D"/>
  <rect x="88" y="16" width="8" height="8" fill="#0A1E3D"/>
  <rect x="96" y="16" width="8" height="8" fill="#0A1E3D"/>
  <rect x="104" y="16" width="8" height="8" fill="#0D3B6E"/>
  <rect x="112" y="16" width="8" height="8" fill="#0A1E3D"/>
  <rect x="128" y="16" width="8" height="8" fill="#040D1A"/>
  <rect x="136" y="16" width="8" height="8" fill="#0A1E3D"/>
  <rect x="144" y="16" width="8" height="8" fill="#0D3B6E"/>
  <rect x="152" y="16" width="8" height="8" fill="#1565AA"/>
  <rect x="160" y="16" width="8" height="8" fill="#42A5F0"/>
  <rect x="168" y="16" width="8" height="8" fill="#1976C3"/>
  <rect x="176" y="16" width="8" height="8" fill="#0A1E3D"/>
  <rect x="0" y="24" width="8" height="8" fill="#0A1E3D"/>
  <rect x="8" y="24" width="8" height="8" fill="#0A1E3D"/>
  <rect x="16" y="24" width="8" height="8" fill="#0A1E3D"/>
  <rect x="88" y="24" width="8" height="8" fill="#0A1E3D"/>
  <rect x="96" y="24" width="8" height="8" fill="#1565AA"/>
  <rect x="104" y="24" width="8" height="8" fill="#1976C3"/>
  <rect x="112" y="24" width="8" height="8" fill="#0D3B6E"/>
  <rect x="120" y="24" width="8" height="8" fill="#0A1E3D"/>
  <rect x="128" y="24" width="8" height="8" fill="#0A1E3D"/>
  <rect x="136" y="24" width="8" height="8" fill="#0D3B6E"/>
  <rect x="144" y="24" width="8" height="8" fill="#1565AA"/>
  <rect x="152" y="24" width="8" height="8" fill="#1565AA"/>
  <rect x="160" y="24" width="8" height="8" fill="#1565AA"/>
  <rect x="168" y="24" width="8" height="8" fill="#1565AA"/>
  <rect x="176" y="24" width="8" height="8" fill="#0A1E3D"/>
  <rect x="184" y="24" width="8" height="8" fill="#0A1E3D"/>
  <rect x="192" y="24" width="8" height="8" fill="#0A1E3D"/>
  <rect x="0" y="32" width="8" height="8" fill="#0A1E3D"/>
  <rect x="8" y="32" width="8" height="8" fill="#0D3B6E"/>
  <rect x="16" y="32" width="8" height="8" fill="#0D3B6E"/>
  <rect x="24" y="32" width="8" height="8" fill="#0A1E3D"/>
  <rect x="96" y="32" width="8" height="8" fill="#0A1E3D"/>
  <rect x="104" y="32" width="8" height="8" fill="#0D3B6E"/>
  <rect x="112" y="32" width="8" height="8" fill="#0D3B6E"/>
  <rect x="120" y="32" width="8" height="8" fill="#0A1E3D"/>
  <rect x="128" y="32" width="8" height="8" fill="#0D3B6E"/>
  <rect x="136" y="32" width="8" height="8" fill="#0D3B6E"/>
  <rect x="144" y="32" width="8" height="8" fill="#0D3B6E"/>
  <rect x="152" y="32" width="8" height="8" fill="#0D3B6E"/>
  <rect x="160" y="32" width="8" height="8" fill="#0D3B6E"/>
  <rect x="168" y="32" width="8" height="8" fill="#0D3B6E"/>
  <rect x="176" y="32" width="8" height="8" fill="#0D3B6E"/>
  <rect x="184" y="32" width="8" height="8" fill="#0D3B6E"/>
  <rect x="192" y="32" width="8" height="8" fill="#0A1E3D"/>
  <rect x="200" y="32" width="8" height="8" fill="#0A1E3D"/>
  <rect x="208" y="32" width="8" height="8" fill="#0A1E3D"/>
  <rect x="8" y="40" width="8" height="8" fill="#0A1E3D"/>
  <rect x="16" y="40" width="8" height="8" fill="#0D3B6E"/>
  <rect x="24" y="40" width="8" height="8" fill="#0D3B6E"/>
  <rect x="32" y="40" width="8" height="8" fill="#0A1E3D"/>
  <rect x="80" y="40" width="8" height="8" fill="#0A1E3D"/>
  <rect x="88" y="40" width="8" height="8" fill="#0A1E3D"/>
  <rect x="96" y="40" width="8" height="8" fill="#0A1E3D"/>
  <rect x="104" y="40" width="8" height="8" fill="#0D3B6E"/>
  <rect x="112" y="40" width="8" height="8" fill="#0D3B6E"/>
  <rect x="120" y="40" width="8" height="8" fill="#0D3B6E"/>
  <rect x="128" y="40" width="8" height="8" fill="#1976C3"/>
  <rect x="136" y="40" width="8" height="8" fill="#1976C3"/>
  <rect x="144" y="40" width="8" height="8" fill="#1976C3"/>
  <rect x="152" y="40" width="8" height="8" fill="#1976C3"/>
  <rect x="160" y="40" width="8" height="8" fill="#1976C3"/>
  <rect x="168" y="40" width="8" height="8" fill="#1976C3"/>
  <rect x="176" y="40" width="8" height="8" fill="#1976C3"/>
  <rect x="184" y="40" width="8" height="8" fill="#1565AA"/>
  <rect x="192" y="40" width="8" height="8" fill="#0D3B6E"/>
  <rect x="200" y="40" width="8" height="8" fill="#0D3B6E"/>
  <rect x="208" y="40" width="8" height="8" fill="#0D3B6E"/>
  <rect x="216" y="40" width="8" height="8" fill="#0A1E3D"/>
  <rect x="224" y="40" width="8" height="8" fill="#0A1E3D"/>
  <rect x="16" y="48" width="8" height="8" fill="#0A1E3D"/>
  <rect x="24" y="48" width="8" height="8" fill="#1565AA"/>
  <rect x="32" y="48" width="8" height="8" fill="#0D3B6E"/>
  <rect x="40" y="48" width="8" height="8" fill="#0A1E3D"/>
  <rect x="64" y="48" width="8" height="8" fill="#0A1E3D"/>
  <rect x="72" y="48" width="8" height="8" fill="#0A1E3D"/>
  <rect x="80" y="48" width="8" height="8" fill="#0D3B6E"/>
  <rect x="88" y="48" width="8" height="8" fill="#1565AA"/>
  <rect x="96" y="48" width="8" height="8" fill="#1565AA"/>
  <rect x="104" y="48" width="8" height="8" fill="#1565AA"/>
  <rect x="112" y="48" width="8" height="8" fill="#1976C3"/>
  <rect x="120" y="48" width="8" height="8" fill="#42A5F0"/>
  <rect x="128" y="48" width="8" height="8" fill="#1976C3"/>
  <rect x="136" y="48" width="8" height="8" fill="#1976C3"/>
  <rect x="144" y="48" width="8" height="8" fill="#1976C3"/>
  <rect x="152" y="48" width="8" height="8" fill="#1976C3"/>
  <rect x="160" y="48" width="8" height="8" fill="#1976C3"/>
  <rect x="168" y="48" width="8" height="8" fill="#1976C3"/>
  <rect x="176" y="48" width="8" height="8" fill="#42A5F0"/>
  <rect x="184" y="48" width="8" height="8" fill="#1976C3"/>
  <rect x="192" y="48" width="8" height="8" fill="#1976C3"/>
  <rect x="200" y="48" width="8" height="8" fill="#1976C3"/>
  <rect x="208" y="48" width="8" height="8" fill="#1565AA"/>
  <rect x="216" y="48" width="8" height="8" fill="#1565AA"/>
  <rect x="224" y="48" width="8" height="8" fill="#0A1E3D"/>
  <rect x="232" y="48" width="8" height="8" fill="#0A1E3D"/>
  <rect x="16" y="56" width="8" height="8" fill="#0A1E3D"/>
  <rect x="24" y="56" width="8" height="8" fill="#0D3B6E"/>
  <rect x="32" y="56" width="8" height="8" fill="#0D3B6E"/>
  <rect x="40" y="56" width="8" height="8" fill="#0A1E3D"/>
  <rect x="48" y="56" width="8" height="8" fill="#0A1E3D"/>
  <rect x="56" y="56" width="8" height="8" fill="#0A1E3D"/>
  <rect x="64" y="56" width="8" height="8" fill="#0A1E3D"/>
  <rect x="72" y="56" width="8" height="8" fill="#1565AA"/>
  <rect x="80" y="56" width="8" height="8" fill="#1565AA"/>
  <rect x="88" y="56" width="8" height="8" fill="#1976C3"/>
  <rect x="96" y="56" width="8" height="8" fill="#1976C3"/>
  <rect x="104" y="56" width="8" height="8" fill="#42A5F0"/>
  <rect x="112" y="56" width="8" height="8" fill="#42A5F0"/>
  <rect x="120" y="56" width="8" height="8" fill="#42A5F0"/>
  <rect x="128" y="56" width="8" height="8" fill="#1565AA"/>
  <rect x="136" y="56" width="8" height="8" fill="#0D3B6E"/>
  <rect x="144" y="56" width="8" height="8" fill="#0D3B6E"/>
  <rect x="152" y="56" width="8" height="8" fill="#0D3B6E"/>
  <rect x="160" y="56" width="8" height="8" fill="#0D3B6E"/>
  <rect x="168" y="56" width="8" height="8" fill="#42A5F0"/>
  <rect x="176" y="56" width="8" height="8" fill="#1976C3"/>
  <rect x="184" y="56" width="8" height="8" fill="#42A5F0"/>
  <rect x="192" y="56" width="8" height="8" fill="#1565AA"/>
  <rect x="200" y="56" width="8" height="8" fill="#42A5F0"/>
  <rect x="208" y="56" width="8" height="8" fill="#1976C3"/>
  <rect x="216" y="56" width="8" height="8" fill="#0D3B6E"/>
  <rect x="224" y="56" width="8" height="8" fill="#B4D8EB"/>
  <rect x="232" y="56" width="8" height="8" fill="#1565AA"/>
  <rect x="240" y="56" width="8" height="8" fill="#0A1E3D"/>
  <rect x="16" y="64" width="8" height="8" fill="#0A1E3D"/>
  <rect x="24" y="64" width="8" height="8" fill="#0D3B6E"/>
  <rect x="32" y="64" width="8" height="8" fill="#1976C3"/>
  <rect x="40" y="64" width="8" height="8" fill="#1565AA"/>
  <rect x="48" y="64" width="8" height="8" fill="#1565AA"/>
  <rect x="56" y="64" width="8" height="8" fill="#1565AA"/>
  <rect x="64" y="64" width="8" height="8" fill="#1565AA"/>
  <rect x="72" y="64" width="8" height="8" fill="#1976C3"/>
  <rect x="80" y="64" width="8" height="8" fill="#42A5F0"/>
  <rect x="88" y="64" width="8" height="8" fill="#42A5F0"/>
  <rect x="96" y="64" width="8" height="8" fill="#1976C3"/>
  <rect x="104" y="64" width="8" height="8" fill="#42A5F0"/>
  <rect x="112" y="64" width="8" height="8" fill="#1976C3"/>
  <rect x="120" y="64" width="8" height="8" fill="#42A5F0"/>
  <rect x="128" y="64" width="8" height="8" fill="#42A5F0"/>
  <rect x="136" y="64" width="8" height="8" fill="#1565AA"/>
  <rect x="144" y="64" width="8" height="8" fill="#0D3B6E"/>
  <rect x="152" y="64" width="8" height="8" fill="#1565AA"/>
  <rect x="160" y="64" width="8" height="8" fill="#1565AA"/>
  <rect x="168" y="64" width="8" height="8" fill="#0D3B6E"/>
  <rect x="176" y="64" width="8" height="8" fill="#42A5F0"/>
  <rect x="184" y="64" width="8" height="8" fill="#0D3B6E"/>
  <rect x="192" y="64" width="8" height="8" fill="#42A5F0"/>
  <rect x="200" y="64" width="8" height="8" fill="#42A5F0"/>
  <rect x="208" y="64" width="8" height="8" fill="#42A5F0"/>
  <rect x="216" y="64" width="8" height="8" fill="#0D3B6E"/>
  <rect x="224" y="64" width="8" height="8" fill="#0A1E3D"/>
  <rect x="232" y="64" width="8" height="8" fill="#42A5F0"/>
  <rect x="240" y="64" width="8" height="8" fill="#1565AA"/>
  <rect x="248" y="64" width="8" height="8" fill="#0A1E3D"/>
  <rect x="16" y="72" width="8" height="8" fill="#0A1E3D"/>
  <rect x="24" y="72" width="8" height="8" fill="#0D3B6E"/>
  <rect x="32" y="72" width="8" height="8" fill="#1976C3"/>
  <rect x="40" y="72" width="8" height="8" fill="#0D3B6E"/>
  <rect x="48" y="72" width="8" height="8" fill="#0A1E3D"/>
  <rect x="56" y="72" width="8" height="8" fill="#1565AA"/>
  <rect x="64" y="72" width="8" height="8" fill="#42A5F0"/>
  <rect x="72" y="72" width="8" height="8" fill="#42A5F0"/>
  <rect x="80" y="72" width="8" height="8" fill="#42A5F0"/>
  <rect x="88" y="72" width="8" height="8" fill="#42A5F0"/>
  <rect x="96" y="72" width="8" height="8" fill="#42A5F0"/>
  <rect x="104" y="72" width="8" height="8" fill="#42A5F0"/>
  <rect x="112" y="72" width="8" height="8" fill="#42A5F0"/>
  <rect x="120" y="72" width="8" height="8" fill="#42A5F0"/>
  <rect x="128" y="72" width="8" height="8" fill="#42A5F0"/>
  <rect x="136" y="72" width="8" height="8" fill="#42A5F0"/>
  <rect x="144" y="72" width="8" height="8" fill="#1565AA"/>
  <rect x="152" y="72" width="8" height="8" fill="#0D3B6E"/>
  <rect x="160" y="72" width="8" height="8" fill="#1565AA"/>
  <rect x="168" y="72" width="8" height="8" fill="#1976C3"/>
  <rect x="176" y="72" width="8" height="8" fill="#42A5F0"/>
  <rect x="184" y="72" width="8" height="8" fill="#0D3B6E"/>
  <rect x="192" y="72" width="8" height="8" fill="#42A5F0"/>
  <rect x="200" y="72" width="8" height="8" fill="#1976C3"/>
  <rect x="208" y="72" width="8" height="8" fill="#42A5F0"/>
  <rect x="216" y="72" width="8" height="8" fill="#42A5F0"/>
  <rect x="224" y="72" width="8" height="8" fill="#42A5F0"/>
  <rect x="232" y="72" width="8" height="8" fill="#42A5F0"/>
  <rect x="240" y="72" width="8" height="8" fill="#0A1E3D"/>
  <rect x="248" y="72" width="8" height="8" fill="#0A1E3D"/>
  <rect x="16" y="80" width="8" height="8" fill="#0A1E3D"/>
  <rect x="24" y="80" width="8" height="8" fill="#0D3B6E"/>
  <rect x="32" y="80" width="8" height="8" fill="#1565AA"/>
  <rect x="40" y="80" width="8" height="8" fill="#0A1E3D"/>
  <rect x="56" y="80" width="8" height="8" fill="#0A1E3D"/>
  <rect x="64" y="80" width="8" height="8" fill="#0A1E3D"/>
  <rect x="72" y="80" width="8" height="8" fill="#1565AA"/>
  <rect x="80" y="80" width="8" height="8" fill="#1565AA"/>
  <rect x="88" y="80" width="8" height="8" fill="#42A5F0"/>
  <rect x="96" y="80" width="8" height="8" fill="#1976C3"/>
  <rect x="104" y="80" width="8" height="8" fill="#1976C3"/>
  <rect x="112" y="80" width="8" height="8" fill="#1976C3"/>
  <rect x="120" y="80" width="8" height="8" fill="#42A5F0"/>
  <rect x="128" y="80" width="8" height="8" fill="#1976C3"/>
  <rect x="136" y="80" width="8" height="8" fill="#42A5F0"/>
  <rect x="144" y="80" width="8" height="8" fill="#42A5F0"/>
  <rect x="152" y="80" width="8" height="8" fill="#1565AA"/>
  <rect x="160" y="80" width="8" height="8" fill="#0D3B6E"/>
  <rect x="168" y="80" width="8" height="8" fill="#42A5F0"/>
  <rect x="176" y="80" width="8" height="8" fill="#42A5F0"/>
  <rect x="184" y="80" width="8" height="8" fill="#0D3B6E"/>
  <rect x="192" y="80" width="8" height="8" fill="#42A5F0"/>
  <rect x="200" y="80" width="8" height="8" fill="#1976C3"/>
  <rect x="208" y="80" width="8" height="8" fill="#42A5F0"/>
  <rect x="216" y="80" width="8" height="8" fill="#42A5F0"/>
  <rect x="224" y="80" width="8" height="8" fill="#1565AA"/>
  <rect x="232" y="80" width="8" height="8" fill="#0D3B6E"/>
  <rect x="240" y="80" width="8" height="8" fill="#1565AA"/>
  <rect x="248" y="80" width="8" height="8" fill="#0A1E3D"/>
  <rect x="16" y="88" width="8" height="8" fill="#0A1E3D"/>
  <rect x="24" y="88" width="8" height="8" fill="#1565AA"/>
  <rect x="32" y="88" width="8" height="8" fill="#0D3B6E"/>
  <rect x="40" y="88" width="8" height="8" fill="#0A1E3D"/>
  <rect x="72" y="88" width="8" height="8" fill="#0A1E3D"/>
  <rect x="80" y="88" width="8" height="8" fill="#0D3B6E"/>
  <rect x="88" y="88" width="8" height="8" fill="#0D3B6E"/>
  <rect x="96" y="88" width="8" height="8" fill="#0D3B6E"/>
  <rect x="104" y="88" width="8" height="8" fill="#1565AA"/>
  <rect x="112" y="88" width="8" height="8" fill="#1976C3"/>
  <rect x="120" y="88" width="8" height="8" fill="#1976C3"/>
  <rect x="128" y="88" width="8" height="8" fill="#42A5F0"/>
  <rect x="136" y="88" width="8" height="8" fill="#42A5F0"/>
  <rect x="144" y="88" width="8" height="8" fill="#42A5F0"/>
  <rect x="152" y="88" width="8" height="8" fill="#42A5F0"/>
  <rect x="160" y="88" width="8" height="8" fill="#42A5F0"/>
  <rect x="168" y="88" width="8" height="8" fill="#42A5F0"/>
  <rect x="176" y="88" width="8" height="8" fill="#42A5F0"/>
  <rect x="184" y="88" width="8" height="8" fill="#1565AA"/>
  <rect x="192" y="88" width="8" height="8" fill="#42A5F0"/>
  <rect x="200" y="88" width="8" height="8" fill="#42A5F0"/>
  <rect x="208" y="88" width="8" height="8" fill="#42A5F0"/>
  <rect x="216" y="88" width="8" height="8" fill="#42A5F0"/>
  <rect x="224" y="88" width="8" height="8" fill="#1565AA"/>
  <rect x="232" y="88" width="8" height="8" fill="#1565AA"/>
  <rect x="240" y="88" width="8" height="8" fill="#0A1E3D"/>
  <rect x="8" y="96" width="8" height="8" fill="#0A1E3D"/>
  <rect x="16" y="96" width="8" height="8" fill="#0D3B6E"/>
  <rect x="24" y="96" width="8" height="8" fill="#0D3B6E"/>
  <rect x="32" y="96" width="8" height="8" fill="#0A1E3D"/>
  <rect x="80" y="96" width="8" height="8" fill="#0A1E3D"/>
  <rect x="88" y="96" width="8" height="8" fill="#0D3B6E"/>
  <rect x="96" y="96" width="8" height="8" fill="#1565AA"/>
  <rect x="104" y="96" width="8" height="8" fill="#0D3B6E"/>
  <rect x="112" y="96" width="8" height="8" fill="#0D3B6E"/>
  <rect x="120" y="96" width="8" height="8" fill="#0D3B6E"/>
  <rect x="128" y="96" width="8" height="8" fill="#1976C3"/>
  <rect x="136" y="96" width="8" height="8" fill="#1976C3"/>
  <rect x="144" y="96" width="8" height="8" fill="#1976C3"/>
  <rect x="152" y="96" width="8" height="8" fill="#1976C3"/>
  <rect x="160" y="96" width="8" height="8" fill="#1976C3"/>
  <rect x="168" y="96" width="8" height="8" fill="#1976C3"/>
  <rect x="176" y="96" width="8" height="8" fill="#1976C3"/>
  <rect x="184" y="96" width="8" height="8" fill="#1976C3"/>
  <rect x="192" y="96" width="8" height="8" fill="#1565AA"/>
  <rect x="200" y="96" width="8" height="8" fill="#1565AA"/>
  <rect x="208" y="96" width="8" height="8" fill="#0D3B6E"/>
  <rect x="216" y="96" width="8" height="8" fill="#0D3B6E"/>
  <rect x="224" y="96" width="8" height="8" fill="#0A1E3D"/>
  <rect x="232" y="96" width="8" height="8" fill="#0A1E3D"/>
  <rect x="0" y="104" width="8" height="8" fill="#0A1E3D"/>
  <rect x="8" y="104" width="8" height="8" fill="#0D3B6E"/>
  <rect x="16" y="104" width="8" height="8" fill="#0D3B6E"/>
  <rect x="24" y="104" width="8" height="8" fill="#0A1E3D"/>
  <rect x="72" y="104" width="8" height="8" fill="#0A1E3D"/>
  <rect x="80" y="104" width="8" height="8" fill="#0D3B6E"/>
  <rect x="88" y="104" width="8" height="8" fill="#1565AA"/>
  <rect x="96" y="104" width="8" height="8" fill="#1565AA"/>
  <rect x="104" y="104" width="8" height="8" fill="#0D3B6E"/>
  <rect x="112" y="104" width="8" height="8" fill="#0A1E3D"/>
  <rect x="120" y="104" width="8" height="8" fill="#0A1E3D"/>
  <rect x="128" y="104" width="8" height="8" fill="#0D3B6E"/>
  <rect x="136" y="104" width="8" height="8" fill="#0D3B6E"/>
  <rect x="144" y="104" width="8" height="8" fill="#0D3B6E"/>
  <rect x="152" y="104" width="8" height="8" fill="#0D3B6E"/>
  <rect x="160" y="104" width="8" height="8" fill="#0D3B6E"/>
  <rect x="168" y="104" width="8" height="8" fill="#1565AA"/>
  <rect x="176" y="104" width="8" height="8" fill="#0D3B6E"/>
  <rect x="184" y="104" width="8" height="8" fill="#0D3B6E"/>
  <rect x="192" y="104" width="8" height="8" fill="#0D3B6E"/>
  <rect x="200" y="104" width="8" height="8" fill="#0D3B6E"/>
  <rect x="208" y="104" width="8" height="8" fill="#0A1E3D"/>
  <rect x="216" y="104" width="8" height="8" fill="#0A1E3D"/>
  <rect x="224" y="104" width="8" height="8" fill="#0A1E3D"/>
  <rect x="0" y="112" width="8" height="8" fill="#0A1E3D"/>
  <rect x="8" y="112" width="8" height="8" fill="#0A1E3D"/>
  <rect x="16" y="112" width="8" height="8" fill="#0A1E3D"/>
  <rect x="72" y="112" width="8" height="8" fill="#0A1E3D"/>
  <rect x="80" y="112" width="8" height="8" fill="#0A1E3D"/>
  <rect x="88" y="112" width="8" height="8" fill="#0A1E3D"/>
  <rect x="96" y="112" width="8" height="8" fill="#0A1E3D"/>
  <rect x="104" y="112" width="8" height="8" fill="#040D1A"/>
  <rect x="128" y="112" width="8" height="8" fill="#0A1E3D"/>
  <rect x="136" y="112" width="8" height="8" fill="#0A1E3D"/>
  <rect x="144" y="112" width="8" height="8" fill="#0A1E3D"/>
  <rect x="152" y="112" width="8" height="8" fill="#0A1E3D"/>
  <rect x="160" y="112" width="8" height="8" fill="#0D3B6E"/>
  <rect x="168" y="112" width="8" height="8" fill="#42A5F0"/>
  <rect x="176" y="112" width="8" height="8" fill="#0A1E3D"/>
  <rect x="184" y="112" width="8" height="8" fill="#0A1E3D"/>
  <rect x="192" y="112" width="8" height="8" fill="#0A1E3D"/>
  <rect x="200" y="112" width="8" height="8" fill="#0A1E3D"/>
  <rect x="152" y="120" width="8" height="8" fill="#0A1E3D"/>
  <rect x="160" y="120" width="8" height="8" fill="#1565AA"/>
  <rect x="168" y="120" width="8" height="8" fill="#0D3B6E"/>
  <rect x="176" y="120" width="8" height="8" fill="#0D3B6E"/>
  <rect x="152" y="128" width="8" height="8" fill="#0A1E3D"/>
  <rect x="160" y="128" width="8" height="8" fill="#0A1E3D"/>
  <rect x="168" y="128" width="8" height="8" fill="#0A1E3D"/>
</svg>